# xmcd CD database file
#
# Track frame offsets:
#	150
#	15725
#	33185
#	50515
#	67130
#	89642
#	106187
#	123812
#	141412
#	158077
#	173800
#	189660
#
# Disc length: 2811 seconds
#
# Revision: 3
# Processed by: cddbd v1.4PL0 Copyright (c) Steve Scherf et al.
# Submitted via: CDex 1.50
#
DISCID=a20af90c
DTITLE=Collin Raye - Tracks
DYEAR=2000
DGENRE=Country
TTITLE0=She's All That
TTITLE1=I Want To Be There
TTITLE2=Completely
TTITLE3=Couldn't Last A Moment
TTITLE4=You Will Always Be Mine
TTITLE5=A Long Way To Go
TTITLE6=Harder Cards
TTITLE7=Landing In Love
TTITLE8=Loving This Way (Duet With Bobbie Eakes)
TTITLE9=You Still Take Me There
TTITLE10=Water And Bridges
TTITLE11=She's Gonna Fly
EXTD=\n YEAR: 2000
EXTT0=
EXTT1=
EXTT2=
EXTT3=
EXTT4=
EXTT5=
EXTT6=
EXTT7=
EXTT8=
EXTT9=
EXTT10=
EXTT11=
PLAYORDER=
